<?xml version="1.0" encoding="UTF-8"?>
<svg id="a" data-name="Layer 1" xmlns="http://www.w3.org/2000/svg" viewBox="0 0 1673.69 409.13">
  <defs>
    <style>
      .b {
        font-family: ALoveofThunder, 'A Love of Thunder';
        font-size: 142.05px;
      }

      .b, .c {
        fill: #e9f6f1;
      }

      .d {
        letter-spacing: .02em;
      }
    </style>
  </defs>
  <path class="c" d="M348.44,217.21c-14.19,.26-28.41,.86-42.54,2.19-6.3,.59-12.4,3.28-18.67,5.04-.17-.52-.38-1-.48-1.52-2.65-13.87-10.78-22.99-23.87-28.06-1.69-.65-3.49-2.4-4.18-4.07-17.39-41.68-34.6-83.44-51.98-125.13-1.32-3.17-1.28-5.27,1.05-8.08,13.11-15.87,8.76-41.16-8.7-52-14.9-9.25-34.46-6.83-45.59,5.64-12.45,13.94-13.02,32.89-1.28,47.32,1.52,1.86,1.92,3.32,.95,5.64-17.6,42.31-35.08,84.68-52.73,126.97-.65,1.55-2.44,3.1-4.05,3.7-7.19,2.69-13.51,6.67-17.52,13.2-3.14,5.09-5.21,10.84-7.84,16.48-2.16-.79-4.86-1.85-7.61-2.76-17.15-5.7-34.9-5.11-52.57-4.63C4.36,217.34,.02,222.9,0,229.71c-.1,38.59,28.89,74.03,66.76,81.19,4.38,.83,5.9,2.37,6.69,6.75,7.42,41.43,31.1,69.7,70.35,84.51,8.84,3.33,18.54,4.37,27.84,6.46,.98,.22,1.95,.38,2.91,.51,.06,0,.11,0,.17,0,3.63-.17,7.24-.19,10.87-.18,.66-.1,1.33-.2,2.02-.32,1.43-.26,2.85-.6,4.29-.77,20.45-2.4,38.8-9.93,54.81-22.86,22.29-18.01,35.53-41.29,39.61-69.67,.37-2.59,1.38-3.57,3.82-3.98,15.9-2.67,29.82-9.56,41.63-20.46,17.94-16.55,27.02-37.18,27.45-61.56,.11-6.54-4.5-12.22-10.79-12.1Zm-269.59,45.87c-2.49,7.94-4.61,16-6.95,24.32-24.29-4.22-43.37-25.87-46.23-46.37,19.29-.68,37.35,2.15,51.78,16.61,1.73,1.73,2.16,3.03,1.4,5.44ZM179.51,23.8c6.51-.07,12,5.31,12.07,11.82,.07,6.51-5.31,12-11.82,12.07-6.51,.07-12-5.31-12.07-11.82-.07-6.51,5.31-12,11.82-12.07Zm-52.24,165.4c15.72-38.02,31.48-76.03,47.14-114.07,1.03-2.49,2.1-3.74,5.11-3.6,2.69,.13,4.13,.63,5.25,3.37,15.68,38.18,31.5,76.3,47.28,114.44,.44,1.07,.75,2.18,1.21,3.53H125.93c.5-1.36,.87-2.54,1.34-3.68Zm69.58,193.7c-57.79,12.27-109.74-37.99-99.53-96.5,1.13-6.48,3.71-12.69,5.54-19.05,.58-2.01,1.69-2.54,3.76-2.53,24.34,.08,48.68,.05,73.03,.05,24.21,.01,48.42,.06,72.63-.06,2.43-.01,3.42,.79,4.32,2.92,20.77,48.7-7.99,104.18-59.75,115.17Zm54.62-142.01c-11.84,.16-23.68,.05-35.53,.06-12.24,0-24.48,0-36.72,0-23.55,0-47.1,.05-70.65-.03-9.2-.03-15.1-8.16-11.9-16.22,1.83-4.62,5.39-7.13,10.32-7.63,1.45-.15,2.92-.07,4.39-.07,45.51,0,91.01,0,136.52,0,1.2,0,2.4-.03,3.59,.02,6.86,.31,11.95,5.42,11.95,11.96,0,6.54-5.1,11.82-11.96,11.91Zm35.92,46.52c-2.52-8.8-5.03-17.29-7.28-25.85-.26-.99,.64-2.64,1.48-3.52,10.9-11.41,24.73-16.01,40.06-16.91,3.96-.23,7.94-.03,11.92-.03-2.71,20.12-21.65,42.01-46.18,46.31Z"/>
  <path class="c" d="M179.58,361.65c-9.34,0-14.52-2.96-21.45-5.08-6.85-2.09-9.99-8.85-7.84-15.23,2.07-6.16,8.5-9.57,15.18-7.32,9.59,3.24,18.9,3.17,28.49-.06,6.59-2.22,13.12,1.38,15.07,7.54,1.99,6.28-1.07,12.97-7.7,15-7.05,2.16-12.41,5.15-21.75,5.15Z"/>
  <path class="c" d="M143.67,300.9c-.04,6.52-5.5,11.92-12.02,11.87-6.52-.04-11.92-5.5-11.87-12.02,.04-6.52,5.5-11.92,12.02-11.87,6.52,.04,11.92,5.5,11.87,12.02Z"/>
  <path class="c" d="M227.68,312.78c-6.51,.08-12.01-5.29-12.09-11.81-.08-6.51,5.29-12.01,11.81-12.09,6.51-.08,12.01,5.29,12.09,11.81,.08,6.51-5.29,12.01-11.81,12.09Z"/>
  <text class="b" transform="translate(448.62 288.88)"><tspan x="0" y="0">THE </tspan><tspan class="d" x="311.52" y="0">G</tspan><tspan x="433.83" y="0">OBLIN DEN</tspan></text>
</svg>